<?xml version="1.0" encoding="UTF-8"?>
<svg id="b_ig_icon" xmlns="http://www.w3.org/2000/svg" viewBox="0 0 48 48">
  <g id="ig_b">
    <path id="white_b2" d="M48,24c0,13.3-10.7,24-24,24S0,37.3,0,24,10.7,0,24,0s24,10.7,24,24Z" style="fill: #fff6dd;"/>
    <path id="brown_b2" d="M33.2,9H14.8c-3.2,0-5.8,2.6-5.8,5.8v18.4c0,3.2,2.6,5.8,5.8,5.8h18.4c3.2,0,5.8-2.6,5.8-5.8V14.8c0-3.2-2.6-5.8-5.8-5.8Zm1.7,3.5h.7v5.1h-5.1v-5.1h4.4Zm-15.2,8.4c1-1.3,2.5-2.2,4.3-2.2s3.3,.9,4.3,2.2c.6,.9,1,1.9,1,3.1,0,2.9-2.4,5.3-5.3,5.3s-5.3-2.4-5.3-5.3c0-1.1,.4-2.2,1-3.1Zm16.4,12.3c0,1.6-1.3,2.9-2.9,2.9H14.8c-1.6,0-2.9-1.3-2.9-2.9v-12.3h4.5c-.4,1-.6,2-.6,3.1,0,4.5,3.7,8.2,8.2,8.2s8.2-3.7,8.2-8.2c0-1.1-.2-2.1-.6-3.1h4.5v12.3Z" style="fill: #75451c;"/>
  </g>
</svg>