<?xml version="1.0" encoding="UTF-8"?>
<svg id="b_yb_icon" xmlns="http://www.w3.org/2000/svg" viewBox="0 0 48 48">
  <g id="b_yb">
    <path id="white_b3" d="M48,24c0,13.3-10.7,24-24,24S0,37.3,0,24,10.7,0,24,0s24,10.7,24,24Z" style="fill: #fff6dd;"/>
    <path id="brown_b3" d="M38.7,17.7s-.3-2.2-1.2-3.1c-1.1-1.2-2.4-1.3-3-1.3-4.2-.3-10.5-.3-10.5-.3h0s-6.3,0-10.5,.3c-.6,.1-1.9,.1-3,1.3-.9,.9-1.2,3.1-1.2,3.1,0,0-.3,2.6-.3,5.1v2.4c0,2.5,.3,5.1,.3,5.1,0,0,.3,2.2,1.2,3.1,1.1,1.2,2.6,1.2,3.3,1.3,2.4,.2,10.2,.3,10.2,.3,0,0,6.3,0,10.5-.3,.6-.1,1.9-.1,3-1.3,.9-.9,1.2-3.1,1.2-3.1,0,0,.3-2.5,.3-5.1v-2.4c0-2.5-.3-5.1-.3-5.1Zm-17.8,10.4v-8.8l8.1,4.4s-8.1,4.4-8.1,4.4Z" style="fill: #75451c;"/>
  </g>
</svg>