<svg id="Layer_1" data-name="Layer 1" xmlns="http://www.w3.org/2000/svg" viewBox="0 0 766.21 358.47"><defs><style>.cls-1{fill:#f6921e;}</style></defs><path class="cls-1" d="M392.22,29.32c-43.42-17-60.43-10.74-97.14,0-52.09,15.25-85.51,72.52-67.6,77.9s62.67-13.88,86.85,12.08,14.77,62.62,3.58,77.45c-8.91,11.79-5.82,13.88-10.3,4.47S302.24,212,302.69,220c.55,9.87.89,32.68-18.36,48.79s-28.65,24.62-34,19.25,7.16-65.36,4.93-91.32-29.82-69.39-38.42-73.42-11.27-4.92-8.14-11.19-4-55.74-14.55-69.16C187,33.87,176.33,12.71,167.94,4.7,166.32,3.16,162.57,0,160.33,0,156-.07,153,3.58,147.51,11.76,139.62,23.63,131.91,43,131.91,43s-2.13-1.35-9.85,0-20.15,3-30.89,11.41c0,0-18.11,14.8-24.85,23.06C59.73,85.51,43.94,100.28,48,111.24s18.13,22.39,41.18,28.65S114.67,148,114.67,148s3.13,2.24,4,8.06-.9,14.77-.9,14.77L82,183.32s-5.37-6.72-16.56-7.16-18.36-1.35-30,.44c0,0-10.29-14.32-14.32-13s-5.82,3.13-5.82,4.93,9.4,11.19,9.4,11.19-7.16,6.71-9.4,10.29S-3.06,216,.52,223.61s15.22,38.5,28.65,45.66S54.24,284,65,282.7s19.25-6.27,21.94-9.4a14,14,0,0,0,1.19-1.91c-1.31,3.06-2.32,5.73-3,7.73-3.13,9.4-.89,21.93,4,30.44s46.56,30,46.56,30-21.93-3.13-26.86,3.13S96.76,357,111.54,357s77.44,5.37,82.59-4.48a64,64,0,0,1,13.65-17s24.18-12.08,45.67-23.28c9.68-5,30.91-8.63,58.39-23.46V209.19h26.88V228q6.52-10.77,11.36-14.72,7.91-6.63,20.56-6.62a12.75,12.75,0,0,1,1.33,0c.36,0,1.17.08,2.42.14v28.86c-1.78-.2-3.36-.33-4.74-.4s-2.51-.09-3.36-.09q-17,0-22.83,11.06-3.25,6.22-3.26,19.17v5.09c27.78-21,59.22-54.3,90.52-109.12C452.5,123.22,435.64,46.33,392.22,29.32ZM115.57,232.11c-10.63,8.71-18.6,21.14-23.86,31.55,2.38-5.59,5-12.43,6.77-17.54a50.8,50.8,0,0,0,1.87-6.4c.89-5.37-11.64-43-11.64-43h28.65S122.77,226.21,115.57,232.11Z"/><path class="cls-1" d="M311.84,316.9H340.2V270.5a221.89,221.89,0,0,1-28.36,18.28Z"/><polygon class="cls-1" points="538.63 272.8 480.81 171.24 448.9 171.24 448.9 316.9 477.26 316.9 477.26 213.55 536.56 316.9 566.99 316.9 566.99 171.24 538.63 171.24 538.63 272.8"/><path class="cls-1" d="M661,267.79q0,10.36-2.76,16.7-5.31,11.65-19.66,11.66-11.22,0-15-8.21-2.18-4.63-2.17-13.83V209.19H592.49v64.92q0,18.48,4.63,28,8.26,17.19,32.12,17.19a43.66,43.66,0,0,0,14.44-2.17A39.05,39.05,0,0,0,656.44,309a19.82,19.82,0,0,0,3.74-4.35c1.05-1.64,1.71-2.63,2-3V316.9h27.38V209.19H661Z"/><path class="cls-1" d="M766.21,230.23V210.17H748.72v-30H720.85v30h-15v20.06h15v66.31q0,10.08,4.74,14.92,7.32,7.62,27.28,6.92l13.34-.49V296.84c-.92.07-1.86.11-2.82.15s-1.86.05-2.71.05c-5.74,0-9.16-.55-10.28-1.63s-1.68-3.84-1.68-8.26V230.23Z"/><circle class="cls-1" cx="385.25" cy="304.41" r="12.76"/></svg>