<?xml version="1.0" encoding="utf-8"?>
<!-- Generator: Adobe Illustrator 24.0.1, SVG Export Plug-In . SVG Version: 6.00 Build 0)  -->
<svg version="1.1" id="Layer_1" xmlns="http://www.w3.org/2000/svg" xmlns:xlink="http://www.w3.org/1999/xlink" x="0px" y="0px"
	 viewBox="0 0 766.2 358.5" style="enable-background:new 0 0 766.2 358.5;" xml:space="preserve">
<style type="text/css">
	.st0{fill:#FFF5DC;}
</style>
<path class="st0" d="M392.2,29.3c-43.4-17-60.4-10.7-97.1,0c-52.1,15.3-85.5,72.5-67.6,77.9s62.7-13.9,86.9,12.1s14.8,62.6,3.6,77.4
	c-8.9,11.8-5.8,13.9-10.3,4.5s-5.4,10.8-4.9,18.8c0.5,9.9,0.9,32.7-18.4,48.8s-28.6,24.6-34,19.3s7.2-65.4,4.9-91.3
	s-29.8-69.4-38.4-73.4s-11.3-4.9-8.1-11.2s-4-55.7-14.6-69.2c-7.2-9.1-17.8-30.2-26.2-38.2c-1.6-1.5-5.4-4.7-7.6-4.7
	c-4.3-0.1-7.3,3.6-12.8,11.8C139.6,23.6,131.9,43,131.9,43s-2.1-1.3-9.8,0s-20.2,3-30.9,11.4c0,0-18.1,14.8-24.8,23.1
	c-6.6,8-22.4,22.8-18.3,33.8s18.1,22.4,41.2,28.7s25.5,8.1,25.5,8.1s3.1,2.2,4,8.1s-0.9,14.8-0.9,14.8L82,183.3
	c0,0-5.4-6.7-16.6-7.2s-18.4-1.4-30,0.4c0,0-10.3-14.3-14.3-13s-5.8,3.1-5.8,4.9s9.4,11.2,9.4,11.2s-7.2,6.7-9.4,10.3
	s-18.4,26-14.8,33.6s15.2,38.5,28.6,45.7S54.2,284,65,282.7s19.3-6.3,21.9-9.4c0.4-0.6,0.8-1.2,1.2-1.9c-1.3,3.1-2.3,5.7-3,7.7
	c-3.1,9.4-0.9,21.9,4,30.4s46.6,30,46.6,30s-21.9-3.1-26.9,3.1S96.8,357,111.5,357s77.4,5.4,82.6-4.5c3.5-6.4,8.2-12.2,13.6-17
	c0,0,24.2-12.1,45.7-23.3c9.7-5,30.9-8.6,58.4-23.5v-79.6h26.9V228c4.3-7.2,8.1-12.1,11.4-14.7c5.3-4.4,12.1-6.6,20.6-6.6
	c0.4,0,0.9,0,1.3,0c0.4,0,1.2,0.1,2.4,0.1v28.9c-1.8-0.2-3.4-0.3-4.7-0.4s-2.5-0.1-3.4-0.1c-11.3,0-18.9,3.7-22.8,11.1
	c-2.2,4.1-3.3,10.5-3.3,19.2v5.1c27.8-21,59.2-54.3,90.5-109.1C452.5,123.2,435.6,46.3,392.2,29.3z M115.6,232.1
	c-10.6,8.7-18.6,21.1-23.9,31.6c2.4-5.6,5-12.4,6.8-17.5c0.8-2.1,1.4-4.2,1.9-6.4c0.9-5.4-11.6-43-11.6-43h28.7
	C117.4,196.7,122.8,226.2,115.6,232.1z"/>
<path class="st0" d="M311.8,316.9h28.4v-46.4c-9,6.8-18.5,12.9-28.4,18.3L311.8,316.9z"/>
<polygon class="st0" points="538.6,272.8 480.8,171.2 448.9,171.2 448.9,316.9 477.3,316.9 477.3,213.6 536.6,316.9 567,316.9 
	567,171.2 538.6,171.2 "/>
<path class="st0" d="M661,267.8c0,6.9-0.9,12.5-2.8,16.7c-3.5,7.8-10.1,11.7-19.7,11.7c-7.5,0-12.5-2.7-15-8.2
	c-1.5-3.1-2.2-7.7-2.2-13.8v-64.9h-28.9v64.9c0,12.3,1.5,21.7,4.6,28c5.5,11.5,16.2,17.2,32.1,17.2c4.9,0.1,9.8-0.6,14.4-2.2
	c4.7-1.9,9.1-4.6,12.8-8.1c1.5-1.3,2.7-2.7,3.7-4.4c1-1.6,1.7-2.6,2-3v15.3h27.4V209.2H661V267.8z"/>
<path class="st0" d="M766.2,230.2v-20.1h-17.5v-30h-27.9v30h-15v20.1h15v66.3c0,6.7,1.6,11.7,4.7,14.9c4.9,5.1,14,7.4,27.3,6.9
	l13.3-0.5v-21.1c-0.9,0.1-1.9,0.1-2.8,0.1s-1.9,0-2.7,0c-5.7,0-9.2-0.5-10.3-1.6s-1.7-3.8-1.7-8.3v-56.9H766.2z"/>
<circle class="st0" cx="385.3" cy="304.4" r="12.8"/>
</svg>
