<?xml version="1.0" encoding="utf-8"?>
<!-- Generator: Adobe Illustrator 26.4.0, SVG Export Plug-In . SVG Version: 6.00 Build 0)  -->
<svg version="1.1" id="Layer_1" xmlns="http://www.w3.org/2000/svg" xmlns:xlink="http://www.w3.org/1999/xlink" x="0px" y="0px"
	 viewBox="0 0 48 48" style="enable-background:new 0 0 48 48;" xml:space="preserve">
<style type="text/css">
	.st0{fill:#75451C;}
	.st1{fill:#FFF6DD;}
</style>
<g id="fackbook">
	<path id="back_00000098184172471830379620000011786547226613239718_" class="st0" d="M48,24c0,13.3-10.7,24-24,24S0,37.3,0,24
		S10.7,0,24,0S48,10.7,48,24z"/>
	<g id="front">
		<g>
			<path class="st1" d="M20.7,39.2h6c0,0,0-8.3,0-15h4.5l0.5-6h-4.8v-2.4c0-1.2,0.8-1.4,1.3-1.4s3.4,0,3.4,0V9.2H27
				c-5.1,0-6.3,3.8-6.3,6.3v2.7h-3v6h3C20.7,31,20.7,39.2,20.7,39.2z"/>
		</g>
	</g>
</g>
</svg>
