<?xml version="1.0" encoding="utf-8"?>
<!-- Generator: Adobe Illustrator 26.4.0, SVG Export Plug-In . SVG Version: 6.00 Build 0)  -->
<svg version="1.1" id="o_x5F_fb" xmlns="http://www.w3.org/2000/svg" xmlns:xlink="http://www.w3.org/1999/xlink" x="0px" y="0px"
	 viewBox="0 0 48 48" style="enable-background:new 0 0 48 48;" xml:space="preserve">
<style type="text/css">
	.st0{fill:#F69220;}
	.st1{fill:#FFF6DD;}
</style>
<g id="o_x5F_fb_00000116229090623205887690000018118837249338555051_">
	<path id="orange" class="st0" d="M48,24c0,13.3-10.7,24-24,24S0,37.3,0,24S10.7,0,24,0S48,10.7,48,24z"/>
	<path id="white" class="st1" d="M20,39h6c0,0,0-8.3,0-15h4.5l0.5-6h-4.8v-2.4c0-1.2,0.8-1.4,1.3-1.4s3.4,0,3.4,0V9h-4.6
		c-5.1,0-6.3,3.8-6.3,6.3V18h-3v6h3C20,30.8,20,39,20,39z"/>
</g>
</svg>
