<?xml version="1.0" encoding="utf-8"?>
<!-- Generator: Adobe Illustrator 26.4.0, SVG Export Plug-In . SVG Version: 6.00 Build 0)  -->
<svg version="1.1" id="ig" xmlns="http://www.w3.org/2000/svg" xmlns:xlink="http://www.w3.org/1999/xlink" x="0px" y="0px"
	 viewBox="0 0 48 48" style="enable-background:new 0 0 48 48;" xml:space="preserve">
<style type="text/css">
	.st0{fill:#75451C;}
	.st1{fill:#FFF6DD;}
</style>
<g id="back">
	<path id="back_00000090256354130125992190000018307460918617074818_" class="st0" d="M48,24c0,13.3-10.7,24-24,24S0,37.3,0,24
		S10.7,0,24,0S48,10.7,48,24z"/>
</g>
<g id="front">
	<g>
		<path class="st1" d="M32.6,9.1H14.2c-3.2,0-5.8,2.6-5.8,5.8V21v12.3c0,3.2,2.6,5.8,5.8,5.8h18.4c3.2,0,5.8-2.6,5.8-5.8V21v-6.1
			C38.4,11.7,35.8,9.1,32.6,9.1z M34.3,12.6H35v0.7v4.4h-5.1v-5.1H34.3z M19.1,21c1-1.3,2.5-2.2,4.3-2.2s3.3,0.9,4.3,2.2
			c0.6,0.9,1,1.9,1,3.1c0,2.9-2.4,5.3-5.3,5.3s-5.3-2.4-5.3-5.3C18.1,23,18.5,21.9,19.1,21z M35.5,33.3c0,1.6-1.3,2.9-2.9,2.9H14.2
			c-1.6,0-2.9-1.3-2.9-2.9V21h4.5c-0.4,1-0.6,2-0.6,3.1c0,4.5,3.7,8.2,8.2,8.2s8.2-3.7,8.2-8.2c0-1.1-0.2-2.1-0.6-3.1h4.5V33.3z"/>
	</g>
</g>
</svg>
