<?xml version="1.0" encoding="utf-8"?>
<!-- Generator: Adobe Illustrator 26.4.0, SVG Export Plug-In . SVG Version: 6.00 Build 0)  -->
<svg version="1.1" id="Layer_1" xmlns="http://www.w3.org/2000/svg" xmlns:xlink="http://www.w3.org/1999/xlink" x="0px" y="0px"
	 viewBox="0 0 429.2 508.3" style="enable-background:new 0 0 429.2 508.3;" xml:space="preserve">
<style type="text/css">
	.st0{fill:#FFF6DC;stroke:#F6921E;stroke-width:45.7981;stroke-miterlimit:10;}
</style>
<path class="st0" d="M387.1,282.2L387.1,282.2c17.6-42.2,3.8-89.8-30.9-116.4c9.8-3.2,18.2-10.5,22.6-20.8v0
	c8-18.9-0.8-40.7-19.7-48.7l-56-23.7l6.6-15.7c1.7-4-0.2-8.7-4.2-10.4l-3.8-1.6c-4-1.7-8.7,0.2-10.4,4.2l-6.6,15.7l-56-23.7
	c-18.9-8-40.7,0.8-48.7,19.7l0,0c-4.3,10.3-3.7,21.4,0.8,30.7c-43.3-6.3-87.1,16.9-105.1,58.9l0,0l0,0c0,0.1-0.1,0.2-0.1,0.3l0,0
	c-1,2.3-1.9,4.6-2.6,7c-1.1,3.2-2,6.4-2.7,9.6c-3.7,10-58.2,158.5-25.4,204.3c32.9,46,64.3,89.8,70.3,94.1l0.3,0.2
	c0,0-0.1,0,0.2,0.1c4.6,1.9,8.7,3.7,8.7,3.7c4.8,2,62.2-5,122.5-12.6c57.3-7.2,125-144.8,131.7-158.6c3.3-4.9,6.1-10.3,8.5-15.9l0,0
	C387,282.5,387.1,282.3,387.1,282.2L387.1,282.2z"/>
</svg>
