<?xml version="1.0" encoding="utf-8"?>
<!-- Generator: Adobe Illustrator 24.0.1, SVG Export Plug-In . SVG Version: 6.00 Build 0)  -->
<svg version="1.1" id="Layer_1" xmlns="http://www.w3.org/2000/svg" xmlns:xlink="http://www.w3.org/1999/xlink" x="0px" y="0px"
	 viewBox="0 0 48 48" style="enable-background:new 0 0 48 48;" xml:space="preserve">
<style type="text/css">
	.st0{fill:#75451C;}
	.st1{fill:#FFF6DD;}
</style>
<g>
	<path class="st0" d="M48,24c0,13.3-10.7,24-24,24S0,37.3,0,24S10.7,0,24,0S48,10.7,48,24z"/>
	<g>
		<g>
			<g id="Lozenge_16_">
				<g>
					<path class="st1" d="M38.7,17.7c0,0-0.3-2.2-1.2-3.1c-1.1-1.2-2.4-1.3-3-1.3C30.3,13,24,13,24,13l0,0c0,0-6.3,0-10.5,0.3
						c-0.6,0.1-1.9,0.1-3,1.3c-0.9,0.9-1.2,3.1-1.2,3.1S9,20.3,9,22.8v2.4c0,2.5,0.3,5.1,0.3,5.1s0.3,2.2,1.2,3.1
						c1.1,1.2,2.6,1.2,3.3,1.3C16.2,34.9,24,35,24,35s6.3,0,10.5-0.3c0.6-0.1,1.9-0.1,3-1.3c0.9-0.9,1.2-3.1,1.2-3.1
						s0.3-2.5,0.3-5.1v-2.4C39,20.3,38.7,17.7,38.7,17.7z M20.9,28.1v-8.8l8.1,4.4L20.9,28.1z"/>
				</g>
			</g>
		</g>
	</g>
	<path class="st0" d="M48,24c0,13.3-10.7,24-24,24S0,37.3,0,24S10.7,0,24,0S48,10.7,48,24z"/>
	<g>
		<g>
			<g id="Lozenge_14_">
				<g>
					<path class="st1" d="M38.7,17.7c0,0-0.3-2.2-1.2-3.1c-1.1-1.2-2.4-1.3-3-1.3C30.3,13,24,13,24,13l0,0c0,0-6.3,0-10.5,0.3
						c-0.6,0.1-1.9,0.1-3,1.3c-0.9,0.9-1.2,3.1-1.2,3.1S9,20.3,9,22.8v2.4c0,2.5,0.3,5.1,0.3,5.1s0.3,2.2,1.2,3.1
						c1.1,1.2,2.6,1.2,3.3,1.3C16.2,34.9,24,35,24,35s6.3,0,10.5-0.3c0.6-0.1,1.9-0.1,3-1.3c0.9-0.9,1.2-3.1,1.2-3.1
						s0.3-2.5,0.3-5.1v-2.4C39,20.3,38.7,17.7,38.7,17.7z M20.9,28.1v-8.8l8.1,4.4L20.9,28.1z"/>
				</g>
			</g>
		</g>
	</g>
	<path class="st0" d="M48,24c0,13.3-10.7,24-24,24S0,37.3,0,24S10.7,0,24,0S48,10.7,48,24z"/>
	<g>
		<g>
			<g id="Lozenge_15_">
				<g>
					<path class="st1" d="M38.7,17.7c0,0-0.3-2.2-1.2-3.1c-1.1-1.2-2.4-1.3-3-1.3C30.3,13,24,13,24,13l0,0c0,0-6.3,0-10.5,0.3
						c-0.6,0.1-1.9,0.1-3,1.3c-0.9,0.9-1.2,3.1-1.2,3.1S9,20.3,9,22.8v2.4c0,2.5,0.3,5.1,0.3,5.1s0.3,2.2,1.2,3.1
						c1.1,1.2,2.6,1.2,3.3,1.3C16.2,34.9,24,35,24,35s6.3,0,10.5-0.3c0.6-0.1,1.9-0.1,3-1.3c0.9-0.9,1.2-3.1,1.2-3.1
						s0.3-2.5,0.3-5.1v-2.4C39,20.3,38.7,17.7,38.7,17.7z M20.9,28.1v-8.8l8.1,4.4L20.9,28.1z"/>
				</g>
			</g>
		</g>
	</g>
</g>
</svg>
